<svg width="82" height="82" viewBox="0 0 82 82" fill="none" xmlns="http://www.w3.org/2000/svg">
<path d="M41 6.83333C36.5132 6.83333 32.0703 7.71708 27.925 9.43411C23.7797 11.1512 20.0132 13.6678 16.8405 16.8405C10.433 23.248 6.83334 31.9384 6.83334 41C6.83334 56.1017 16.6392 68.9142 30.2033 73.4583C31.9117 73.7317 32.4583 72.6725 32.4583 71.75V65.9758C22.9942 68.0258 20.9783 61.3975 20.9783 61.3975C19.4067 57.4342 17.1858 56.375 17.1858 56.375C14.0767 54.2567 17.425 54.325 17.425 54.325C20.8417 54.5642 22.6525 57.8442 22.6525 57.8442C25.625 63.0375 30.6475 61.5 32.595 60.68C32.9025 58.4592 33.7908 56.9558 34.7475 56.1017C27.1625 55.2475 19.2017 52.3092 19.2017 39.2917C19.2017 35.4992 20.5 32.4583 22.7208 30.0325C22.3792 29.1783 21.1833 25.625 23.0625 21.0125C23.0625 21.0125 25.9325 20.09 32.4583 24.4975C35.1575 23.7458 38.0958 23.37 41 23.37C43.9042 23.37 46.8425 23.7458 49.5417 24.4975C56.0675 20.09 58.9375 21.0125 58.9375 21.0125C60.8167 25.625 59.6208 29.1783 59.2792 30.0325C61.5 32.4583 62.7983 35.4992 62.7983 39.2917C62.7983 52.3433 54.8033 55.2133 47.1842 56.0675C48.4142 57.1267 49.5417 59.2108 49.5417 62.3883V71.75C49.5417 72.6725 50.0883 73.7658 51.8308 73.4583C65.395 68.88 75.1667 56.1017 75.1667 41C75.1667 36.5132 74.2829 32.0703 72.5659 27.925C70.8489 23.7797 68.3322 20.0132 65.1595 16.8405C61.9868 13.6678 58.2203 11.1512 54.075 9.43411C49.9297 7.71708 45.4868 6.83333 41 6.83333Z" fill="black"/>
</svg>
