<svg width="84" height="84" viewBox="0 0 84 84" fill="none" xmlns="http://www.w3.org/2000/svg">
<path d="M66.5 10.5C68.3565 10.5 70.137 11.2375 71.4497 12.5503C72.7625 13.863 73.5 15.6435 73.5 17.5V66.5C73.5 68.3565 72.7625 70.137 71.4497 71.4497C70.137 72.7625 68.3565 73.5 66.5 73.5H17.5C15.6435 73.5 13.863 72.7625 12.5503 71.4497C11.2375 70.137 10.5 68.3565 10.5 66.5V17.5C10.5 15.6435 11.2375 13.863 12.5503 12.5503C13.863 11.2375 15.6435 10.5 17.5 10.5H66.5ZM64.75 64.75V46.2C64.75 43.1739 63.5479 40.2717 61.4081 38.1319C59.2683 35.9921 56.3661 34.79 53.34 34.79C50.365 34.79 46.9 36.61 45.22 39.34V35.455H35.455V64.75H45.22V47.495C45.22 44.8 47.39 42.595 50.085 42.595C51.3846 42.595 52.6309 43.1112 53.5498 44.0302C54.4688 44.9491 54.985 46.1954 54.985 47.495V64.75H64.75ZM24.08 29.96C25.6395 29.96 27.1351 29.3405 28.2378 28.2378C29.3405 27.1351 29.96 25.6395 29.96 24.08C29.96 20.825 27.335 18.165 24.08 18.165C22.5112 18.165 21.0067 18.7882 19.8975 19.8975C18.7882 21.0067 18.165 22.5112 18.165 24.08C18.165 27.335 20.825 29.96 24.08 29.96ZM28.945 64.75V35.455H19.25V64.75H28.945Z" fill="black"/>
</svg>
